{"title":"Gang.Related.S01E04.MP4.HDTV.720p.NLsub.{Th3Sp3cialist}","uid":10810299,"size":785907160,"categoryP":"video","categoryS":"hd___tv_shows","magnet":"?xt=urn:btih:b5978860bb247677bf126e449c2949e7cfd55b45&amp;dn=Gang.Related.S01E04.MP4.HDTV.720p.NLsub.%7BTh3Sp3cialist%7D&amp;tr=udp%3A%2F%2Ftracker.openbittorrent.com%3A80&amp;tr=udp%3A%2F%2Fopen.demonii.com%3A1337&amp;tr=udp%3A%2F%2Ftracker.coppersurfer.tk%3A6969&amp;tr=udp%3A%2F%2Fexodus.desync.com%3A6969","seeders":2,"leechers":0,"uploader":"HOLLANDmovies","files":-1,"time":1408420906,"description":"General\nComplete name                  : Gang.Related.S01E04.MP4.HDTV.720p.NLsub.{Th3Sp3cialist}.Episode.mp4\nFormat                         : MPEG-4\nFormat profile                 : Base Media\nCodec ID                       : isom\nFile size                      : 742 MiB\nDuration                       : 44mn 53s\nOverall bit rate mode          : Variable\nOverall bit rate               : 2 311 Kbps\n\nVideo\nID                             : 1\nOriginal Source                : Gang Related S01E04 1080p HDTV NL Subs - BBT.mkv\nFormat                         : AVC\nFormat/Info                    : Advanced Video Codec\nFormat profile                 : &lt;a class=&quot;__cf_email__&quot; href=&quot;/cdn-cgi/l/email-protection&quot; data-cfemail=&quot;561e3f313e161a657867&quot;&gt;[email&amp;#160;protected]&lt;/a&gt;&lt;script cf-hash='f9e31' type=&quot;text/javascript&quot;&gt;\n/* &lt;![CDATA[ */!function(){try{var t=&quot;currentScript&quot;in document?document.currentScript:function(){for(var t=document.getElementsByTagName(&quot;script&quot;),e=t.length;e--;)if(t[e].getAttribute(&quot;cf-hash&quot;))return t[e]}();if(t&amp;&amp;t.previousSibling){var e,r,n,i,c=t.previousSibling,a=c.getAttribute(&quot;data-cfemail&quot;);if(a){for(e=&quot;&quot;,r=parseInt(a.substr(0,2),16),n=2;a.length-n;n+=2)i=parseInt(a.substr(n,2),16)^r,e+=String.fromCharCode(i);e=document.createTextNode(e),c.parentNode.replaceChild(e,c)}}}catch(u){}}();/* ]]&gt; */&lt;/script&gt;\nFormat settings, CABAC         : Yes\nFormat settings, ReFrames      : 5 frames\nCodec ID                       : avc1\nCodec ID/Info                  : Advanced Video Coding\nDuration                       : 44mn 52s\nBit rate                       : 2 153 Kbps\nWidth                          : 1 280 pixels\nHeight                         : 720 pixels\nDisplay aspect ratio           : 16:9\nFrame rate mode                : Constant\nFrame rate                     : 23.976 fps\nColor space                    : YUV\nChroma subsampling             : 4:2:0\nBit depth                      : 8 bits\nScan type                      : Progressive\nBits/(Pixel*Frame)             : 0.097\nStream size                    : 691 MiB (93%)\n\nAudio\nID                             : 2\nFormat                         : AAC\nFormat/Info                    : Advanced Audio Codec\nFormat profile                 : LC\nCodec ID                       : 40\nDuration                       : 44mn 53s\nBit rate mode                  : Variable\nBit rate                       : 152 Kbps\nChannel(s)                     : 2 channels\nChannel positions              : Front: L R\nSampling rate                  : 44.1 KHz\nCompression mode               : Lossy\nStream size                    : 48.8 MiB (7%)\n &lt;a href=&quot;\nhttp://bayimg.com/kAPFdaAFo&quot; rel=&quot;nofollow&quot; target=&quot;_NEW&quot;&gt;\nhttp://bayimg.com/kAPFdaAFo&lt;/a&gt; &lt;a href=&quot;\nhttp://bayimg.com/kAPffAafO&quot; rel=&quot;nofollow&quot; target=&quot;_NEW&quot;&gt;\nhttp://bayimg.com/kAPffAafO&lt;/a&gt; &lt;a href=&quot;\nhttp://bayimg.com/KapFgAafo&quot; rel=&quot;nofollow&quot; target=&quot;_NEW&quot;&gt;\nhttp://bayimg.com/KapFgAafo&lt;/a&gt;","torrent":{"xt":"urn:btih:b5978860bb247677bf126e449c2949e7cfd55b45","amp;dn":"Gang.Related.S01E04.MP4.HDTV.720p.NLsub.%7BTh3Sp3cialist%7D","amp;tr":["udp%3A%2F%2Ftracker.openbittorrent.com%3A80","udp%3A%2F%2Fopen.demonii.com%3A1337","udp%3A%2F%2Ftracker.coppersurfer.tk%3A6969","udp%3A%2F%2Fexodus.desync.com%3A6969"],"infoHash":"b5978860bb247677bf126e449c2949e7cfd55b45","infoHashBuffer":{"type":"Buffer","data":[181,151,136,96,187,36,118,119,191,18,110,68,156,41,73,231,207,213,91,69]},"announce":[],"urlList":[]}}